<?xml version="1.0" encoding="utf-8"?>
<!-- Generator: Adobe Illustrator 18.0.0, SVG Export Plug-In . SVG Version: 6.00 Build 0)  -->
<!DOCTYPE svg PUBLIC "-//W3C//DTD SVG 1.1//EN" "http://www.w3.org/Graphics/SVG/1.1/DTD/svg11.dtd">
<svg version="1.1" id="Layer_1" xmlns="http://www.w3.org/2000/svg" xmlns:xlink="http://www.w3.org/1999/xlink" x="0px" y="0px"
	 viewBox="18 18 64 64" enable-background="new 18 18 64 64" xml:space="preserve">
<path fill="#595959" d="M62.7,81.9H37.2C26.6,81.9,18,73.3,18,62.7V37.2C18,26.6,26.6,18,37.2,18h25.6c10.5,0,19.2,8.6,19.2,19.2
	v25.6C81.9,73.3,73.3,81.9,62.7,81.9z"/>
<g>
	<path fill="#FFFFFF" d="M48.3,36.5c-1.3-1.9-2.9-3.2-5.2-3.8c-2.3-0.6-4.6-0.4-6.5,1.2c-2.2,1.7-2.9,4-2.4,6.6
		c0.4,1.9,1.5,3.5,2.9,4.9c1.5,1.4,3.5,2.3,5.6,2.4c4.6,0.4,9.1,0.6,13.7,1c1.2,0.1,2.2,0.1,3.3,0.4c2.4,0.5,4.5,1.7,6.3,3.3
		c2.2,1.9,3.7,4.2,4.3,7c0.8,3.3,0.1,6.4-2,9.1c-2.2,2.7-5.2,3.8-8.7,3.7c-2.7-0.1-5.1-1.2-7.2-2.7c-2.3-1.8-4.1-4-5.1-6.8
		c-0.3-0.6-0.4-1.3-0.5-1.9c-3.3,3.3-11.6,11.4-11.6,11.4h-6.3c0,0,13.3-13.2,17.5-17.3c0.1-0.1,0.4-0.3,0.6-0.3
		c1.7,0.1,3.3,0.3,5,0.4c-0.1,0.5-0.4,1-0.5,1.4c-1,2.4-0.8,4.7,0.6,6.9c1.4,2.2,3.2,3.7,5.9,4.3c2.6,0.6,4.9,0.1,6.8-1.8
		c1.7-1.7,2.2-3.8,1.8-6.1c-0.8-3.5-4.2-6.9-8.3-7.2c-1.8-0.1-3.6-0.3-5.2-0.4c-3.6-0.3-7.3-0.5-10.9-0.9c-1.9-0.1-3.6-0.9-5.2-1.9
		c-2.6-1.7-4.6-4-5.8-6.8c-1.5-3.7-1.3-7.2,1.2-10.5c2-2.8,5-4.1,8.4-4.2c2.7,0,5.1,0.8,7.3,2.3c2.6,1.8,4.5,4.1,5.6,7
		c0.3,0.6,0.4,1.3,0.6,2c3.5-3.3,11.6-11.4,11.6-11.4h6.3c0,0-13.2,12.9-17.4,17.1c-0.1,0.1-0.4,0.3-0.6,0.3
		c-1.5-0.1-3.1-0.3-4.7-0.4c-0.1,0-0.1,0-0.3,0c0.1-0.5,0.4-0.9,0.5-1.4C50.3,41.3,49.8,38.8,48.3,36.5z"/>
</g>
</svg>
