<?xml version="1.0" encoding="utf-8"?>
<!-- Generator: Adobe Illustrator 18.0.0, SVG Export Plug-In . SVG Version: 6.00 Build 0)  -->
<!DOCTYPE svg PUBLIC "-//W3C//DTD SVG 1.1//EN" "http://www.w3.org/Graphics/SVG/1.1/DTD/svg11.dtd">
<svg version="1.1" id="Layer_1" xmlns="http://www.w3.org/2000/svg" xmlns:xlink="http://www.w3.org/1999/xlink" x="0px" y="0px"
	 viewBox="25 25 50 50" enable-background="new 25 25 50 50" xml:space="preserve">
<path fill="#C99065" d="M50,25c-13.8,0-25,11.2-25,25s11.2,25,25,25s25-11.2,25-25S63.8,25,50,25z M48.7,39.5c-1-1.5-2.3-2.5-4.1-3
	c-1.8-0.5-3.6-0.3-5.1,0.9c-1.7,1.3-2.3,3.1-1.9,5.2c0.3,1.5,1.2,2.7,2.3,3.8c1.2,1.1,2.7,1.8,4.4,1.9c3.6,0.3,7.1,0.5,10.7,0.8
	c0.9,0.1,1.7,0.1,2.6,0.3c1.9,0.4,3.5,1.3,4.9,2.6c1.7,1.5,2.9,3.3,3.4,5.5c0.6,2.6,0.1,5-1.6,7.1c-1.7,2.1-4.1,3-6.8,2.9
	c-2.1-0.1-4-0.9-5.6-2.1c-1.8-1.4-3.2-3.1-4-5.3c-0.2-0.5-0.3-1-0.4-1.5c-2.6,2.6-9.1,8.9-9.1,8.9h-4.9c0,0,10.4-10.3,13.7-13.5
	c0.1-0.1,0.3-0.2,0.5-0.2c1.3,0.1,2.6,0.2,3.9,0.3c-0.1,0.4-0.3,0.8-0.4,1.1c-0.8,1.9-0.6,3.7,0.5,5.4s2.5,2.9,4.6,3.4
	c2,0.5,3.8,0.1,5.3-1.4c1.3-1.3,1.7-3,1.4-4.8c-0.6-2.7-3.3-5.4-6.5-5.6c-1.4-0.1-2.8-0.2-4.1-0.3c-2.8-0.2-5.7-0.4-8.5-0.7
	c-1.5-0.1-2.8-0.7-4.1-1.5c-2-1.3-3.6-3.1-4.5-5.3c-1.2-2.9-1-5.6,0.9-8.2c1.6-2.2,3.9-3.2,6.6-3.3c2.1,0,4,0.6,5.7,1.8
	c2,1.4,3.5,3.2,4.4,5.5c0.2,0.5,0.3,1,0.5,1.6c2.7-2.6,9.1-8.9,9.1-8.9h4.9c0,0-10.3,10.1-13.6,13.4c-0.1,0.1-0.3,0.2-0.5,0.2
	c-1.2-0.1-2.4-0.2-3.7-0.3c-0.1,0-0.1,0-0.2,0c0.1-0.4,0.3-0.7,0.4-1.1C50.3,43.2,49.9,41.3,48.7,39.5z"/>
</svg>
