<?xml version="1.0" encoding="utf-8"?>
<!-- Generator: Adobe Illustrator 18.0.0, SVG Export Plug-In . SVG Version: 6.00 Build 0)  -->
<!DOCTYPE svg PUBLIC "-//W3C//DTD SVG 1.1//EN" "http://www.w3.org/Graphics/SVG/1.1/DTD/svg11.dtd">
<svg version="1.1" id="Layer_1" xmlns="http://www.w3.org/2000/svg" xmlns:xlink="http://www.w3.org/1999/xlink" x="0px" y="0px"
	 viewBox="0 0 100 100" enable-background="new 0 0 100 100" xml:space="preserve">
<g>
	<g>
		<path fill="#FFFFFF" d="M50,0C22.4,0,0,22.4,0,50s22.4,50,50,50s50-22.4,50-50S77.6,0,50,0z M47.4,29c-2-3-4.6-5-8.2-6
			c-3.6-1-7.2-0.6-10.2,1.8c-3.4,2.6-4.6,6.2-3.8,10.4c0.6,3,2.4,5.4,4.6,7.6c2.4,2.2,5.4,3.6,8.8,3.8c7.2,0.6,14.2,1,21.4,1.6
			c1.8,0.2,3.4,0.2,5.2,0.6c3.8,0.8,7,2.6,9.8,5.2c3.4,3,5.8,6.6,6.8,11c1.2,5.2,0.2,10-3.2,14.2c-3.4,4.2-8.2,6-13.6,5.8
			c-4.2-0.2-8-1.8-11.2-4.2c-3.6-2.8-6.4-6.2-8-10.6c-0.4-1-0.6-2-0.8-3C39.8,72.4,26.8,85,26.8,85H17c0,0,20.8-20.6,27.4-27
			c0.2-0.2,0.6-0.4,1-0.4c2.6,0.2,5.2,0.4,7.8,0.6c-0.2,0.8-0.6,1.6-0.8,2.2c-1.6,3.8-1.2,7.4,1,10.8s5,5.8,9.2,6.8
			c4,1,7.6,0.2,10.6-2.8c2.6-2.6,3.4-6,2.8-9.6c-1.2-5.4-6.6-10.8-13-11.2c-2.8-0.2-5.6-0.4-8.2-0.6c-5.6-0.4-11.4-0.8-17-1.4
			c-3-0.2-5.6-1.4-8.2-3c-4-2.6-7.2-6.2-9-10.6c-2.4-5.8-2-11.2,1.8-16.4c3.2-4.4,7.8-6.4,13.2-6.6c4.2,0,8,1.2,11.4,3.6
			c4,2.8,7,6.4,8.8,11c0.4,1,0.6,2,1,3.2C62.2,28.4,75,15.8,75,15.8h9.8c0,0-20.6,20.2-27.2,26.8c-0.2,0.2-0.6,0.4-1,0.4
			c-2.4-0.2-4.8-0.4-7.4-0.6c-0.2,0-0.2,0-0.4,0c0.2-0.8,0.6-1.4,0.8-2.2C50.6,36.4,49.8,32.6,47.4,29z"/>
	</g>
</g>
</svg>
